<svg version="1.1" id="Layer_1" xmlns="http://www.w3.org/2000/svg" xmlns:xlink="http://www.w3.org/1999/xlink" x="0px" y="0px"
	 width="100%" viewBox="0 0 200 200" enable-background="new 0 0 200 200" xml:space="preserve">
<path fill="#D00404" opacity="1.000000" stroke="none" 
	d="
M201.000000,69.000000 
	C201.000000,113.333336 201.000000,157.166672 201.000000,201.000000 
	C134.333328,201.000000 67.666664,201.000000 1.000000,201.000000 
	C1.000000,134.333328 1.000000,67.666664 1.000000,1.000000 
	C67.666664,1.000000 134.333328,1.000000 201.000000,1.000000 
	C201.000000,23.500000 201.000000,46.000000 201.000000,69.000000 
M191.330872,5.087554 
	C129.398560,5.087554 67.466248,5.087554 5.333504,5.087554 
	C5.333504,69.250450 5.333504,132.819366 5.333504,196.519562 
	C69.278503,196.519562 132.965851,196.519562 196.565369,196.519562 
	C196.565369,132.554031 196.565369,68.985855 196.565369,5.088643 
	C194.906479,5.088643 193.597656,5.088643 191.330872,5.087554 
z"/>
<path fill="#FEF6F6" opacity="1.000000" stroke="none" 
	d="
M191.809845,5.088099 
	C193.597656,5.088643 194.906479,5.088643 196.565369,5.088643 
	C196.565369,68.985855 196.565369,132.554031 196.565369,196.519562 
	C132.965851,196.519562 69.278503,196.519562 5.333504,196.519562 
	C5.333504,132.819366 5.333504,69.250450 5.333504,5.087554 
	C67.466248,5.087554 129.398560,5.087554 191.809845,5.088099 
M53.356331,17.752262 
	C35.685379,24.401253 23.789330,36.749611 18.018364,54.633839 
	C8.263078,84.865486 8.507137,115.326447 17.603209,145.615860 
	C23.887112,166.540909 38.057926,180.071075 59.152706,185.650955 
	C86.566032,192.902206 114.186134,193.253281 141.629471,185.750275 
	C164.035507,179.624451 178.468002,165.071915 184.658112,142.663254 
	C191.997711,116.093330 192.009613,89.313469 185.723160,62.584812 
	C180.238556,39.265522 166.840683,22.602577 143.113495,16.141045 
	C113.394577,8.047809 83.608383,7.420022 53.356331,17.752262 
z"/>
<path fill="#D70405" opacity="1.000000" stroke="none" 
	d="
M53.711601,17.595566 
	C83.608383,7.420022 113.394577,8.047809 143.113495,16.141045 
	C166.840683,22.602577 180.238556,39.265522 185.723160,62.584812 
	C192.009613,89.313469 191.997711,116.093330 184.658112,142.663254 
	C178.468002,165.071915 164.035507,179.624451 141.629471,185.750275 
	C114.186134,193.253281 86.566032,192.902206 59.152706,185.650955 
	C38.057926,180.071075 23.887112,166.540909 17.603209,145.615860 
	C8.507137,115.326447 8.263078,84.865486 18.018364,54.633839 
	C23.789330,36.749611 35.685379,24.401253 53.711601,17.595566 
M68.039955,101.287529 
	C59.604328,98.618423 54.272545,102.261620 54.084045,111.082993 
	C53.941807,117.739517 54.267994,124.404831 54.202576,131.064438 
	C54.031891,148.441330 75.505608,165.611343 96.836761,153.195389 
	C99.427505,151.687439 101.246796,151.380386 103.986046,153.044861 
	C126.125298,166.497604 148.098358,146.941666 147.313599,128.498734 
	C146.252502,103.561035 147.157013,78.540047 147.199753,53.554756 
	C147.208344,48.529945 142.853851,44.249729 137.761795,44.189873 
	C132.555115,44.128670 128.705261,48.135113 128.641907,53.658585 
	C128.359283,78.308067 128.073029,102.957497 127.784409,127.606911 
	C127.720154,133.094452 124.220726,137.062805 119.341621,137.201401 
	C114.477074,137.339600 110.766251,133.456924 110.623428,127.956757 
	C110.217049,112.307381 109.991013,96.651672 109.399788,81.009567 
	C109.159454,74.651352 106.131340,72.193344 100.284782,72.546654 
	C94.534401,72.894165 91.111549,76.402901 91.062332,82.023232 
	C90.929626,97.179649 90.825699,112.336349 90.664497,127.492462 
	C90.603104,133.264343 87.289871,137.035828 82.321281,137.170303 
	C77.383354,137.303955 73.852966,133.728180 73.451530,127.843758 
	C73.066223,122.195992 73.349167,116.471535 72.543846,110.895546 
	C72.083572,107.708656 70.037514,104.750786 68.039955,101.287529 
z"/>
<path fill="#FEF9F8" opacity="1.000000" stroke="none" 
	d="
M68.372704,101.488663 
	C70.037514,104.750786 72.083572,107.708656 72.543846,110.895546 
	C73.349167,116.471535 73.066223,122.195992 73.451530,127.843758 
	C73.852966,133.728180 77.383354,137.303955 82.321281,137.170303 
	C87.289871,137.035828 90.603104,133.264343 90.664497,127.492462 
	C90.825699,112.336349 90.929626,97.179649 91.062332,82.023232 
	C91.111549,76.402901 94.534401,72.894165 100.284782,72.546654 
	C106.131340,72.193344 109.159454,74.651352 109.399788,81.009567 
	C109.991013,96.651672 110.217049,112.307381 110.623428,127.956757 
	C110.766251,133.456924 114.477074,137.339600 119.341621,137.201401 
	C124.220726,137.062805 127.720154,133.094452 127.784409,127.606911 
	C128.073029,102.957497 128.359283,78.308067 128.641907,53.658585 
	C128.705261,48.135113 132.555115,44.128670 137.761795,44.189873 
	C142.853851,44.249729 147.208344,48.529945 147.199753,53.554756 
	C147.157013,78.540047 146.252502,103.561035 147.313599,128.498734 
	C148.098358,146.941666 126.125298,166.497604 103.986046,153.044861 
	C101.246796,151.380386 99.427505,151.687439 96.836761,153.195389 
	C75.505608,165.611343 54.031891,148.441330 54.202576,131.064438 
	C54.267994,124.404831 53.941807,117.739517 54.084045,111.082993 
	C54.272545,102.261620 59.604328,98.618423 68.372704,101.488663 
z"/>
</svg>